<svg width="18" height="16" viewBox="0 0 18 16" fill="none" xmlns="http://www.w3.org/2000/svg">
<path d="M8.99984 15.4791L8.14567 14.7083C6.67345 13.3611 5.45817 12.1979 4.49984 11.2187C3.5415 10.2395 2.77762 9.36454 2.20817 8.59371C1.63873 7.82288 1.23942 7.12496 1.01025 6.49996C0.781087 5.87496 0.666504 5.24302 0.666504 4.60413C0.666504 3.35413 1.08664 2.30899 1.92692 1.46871C2.7672 0.628431 3.80539 0.208292 5.0415 0.208292C5.83317 0.208292 6.56581 0.395792 7.23942 0.770792C7.91303 1.14579 8.49984 1.68746 8.99984 2.39579C9.58317 1.64579 10.2012 1.09371 10.854 0.739542C11.5068 0.385375 12.2082 0.208292 12.9582 0.208292C14.1943 0.208292 15.2325 0.628431 16.0728 1.46871C16.913 2.30899 17.3332 3.35413 17.3332 4.60413C17.3332 5.24302 17.2186 5.87496 16.9894 6.49996C16.7603 7.12496 16.361 7.82288 15.7915 8.59371C15.2221 9.36454 14.4582 10.2395 13.4998 11.2187C12.5415 12.1979 11.3262 13.3611 9.854 14.7083L8.99984 15.4791ZM8.99984 13.8333C10.4026 12.5416 11.5589 11.434 12.4686 10.5104C13.3783 9.58676 14.1005 8.77774 14.6353 8.08329C15.17 7.38885 15.545 6.77079 15.7603 6.22913C15.9755 5.68746 16.0832 5.14579 16.0832 4.60413C16.0832 3.68746 15.7915 2.93399 15.2082 2.34371C14.6248 1.75343 13.8748 1.45829 12.9582 1.45829C12.2498 1.45829 11.5901 1.67704 10.979 2.11454C10.3679 2.55204 9.87484 3.16663 9.49984 3.95829H8.479C8.11789 3.18051 7.63178 2.5694 7.02067 2.12496C6.40956 1.68051 5.74984 1.45829 5.0415 1.45829C4.12484 1.45829 3.37484 1.75343 2.7915 2.34371C2.20817 2.93399 1.9165 3.68746 1.9165 4.60413C1.9165 5.14579 2.02414 5.69093 2.23942 6.23954C2.4547 6.78815 2.8297 7.41315 3.36442 8.11454C3.89914 8.81593 4.62484 9.62496 5.5415 10.5416C6.45817 11.4583 7.61095 12.5555 8.99984 13.8333Z" fill="#AAAAAA"/>
</svg>
